<svg xmlns="http://www.w3.org/2000/svg" data-name="Layer 1" viewBox="0 0 100 125" x="0px" y="0px"><title>12</title><path d="M51,9.81H24a13,13,0,0,0-13,13V89.15a2,2,0,0,0,2,2H62a2,2,0,0,0,2-2V35.48h3.25a4,4,0,0,1,4,4V67.61a8.88,8.88,0,0,0,17.75,0V24.48a2,2,0,0,0-.68-1.5L72.19,8.85l-2.63,3L85,25.39V67.61a4.88,4.88,0,0,1-9.75,0V39.48a8,8,0,0,0-8-8H64V22.81A13,13,0,0,0,51,9.81Zm9,77.33H15V22.81a9,9,0,0,1,9-9H51a9,9,0,0,1,9,9Z"/><path d="M49.9,20.82H25.1a4,4,0,0,0-4,4V44.14a2,2,0,0,0,2,2H51.9a2,2,0,0,0,2-2V24.82A4,4,0,0,0,49.9,20.82Zm0,21.32H25.1V24.82H49.9Z"/></svg>