<svg xmlns="http://www.w3.org/2000/svg" xmlns:xlink="http://www.w3.org/1999/xlink" version="1.1" x="0px" y="0px" viewBox="0 0 100 125" enable-background="new 0 0 100 100" xml:space="preserve"><path d="M81.8,31.3c-0.5-0.6-1.2-0.9-2-0.9H32.7l-2.9-8.7c-0.3-1-1.3-1.7-2.4-1.7H14.1c-1.4,0-2.5,1.1-2.5,2.5  c0,1.4,1.1,2.5,2.5,2.5h11.4l12.7,37.8c0.4,1.1,1.3,1.7,2.4,1.7c0.2,0,0.4,0,0.5-0.1L76.3,57c1-0.2,1.8-1,2-2l4.1-21.5  C82.5,32.7,82.3,31.9,81.8,31.3z M73.6,52.4l-31.2,6.7l-7.9-23.6l42.4,0L73.6,52.4z M42.1,66.5c-3.7,0-6.7,3-6.7,6.7  c0,3.7,3,6.7,6.7,6.7c3.7,0,6.7-3,6.7-6.7C48.8,69.5,45.8,66.5,42.1,66.5z M71.5,66.5c-3.7,0-6.7,3-6.7,6.7c0,3.7,3,6.7,6.7,6.7  c3.7,0,6.7-3,6.7-6.7C78.2,69.5,75.2,66.5,71.5,66.5z"/><text x="0" y="115" fill="#000000" font-size="5px" font-weight="bold" font-family="'Helvetica Neue', Helvetica, Arial-Unicode, Arial, Sans-serif">Created by Ilia Sokolov</text><text x="0" y="120" fill="#000000" font-size="5px" font-weight="bold" font-family="'Helvetica Neue', Helvetica, Arial-Unicode, Arial, Sans-serif">from the Noun Project</text></svg>