<svg fill="coral" xmlns="http://www.w3.org/2000/svg" xmlns:xlink="http://www.w3.org/1999/xlink" version="1.2" baseProfile="tiny" x="0px" y="0px" viewBox="0 0 100 125" xml:space="preserve"><path d="M94.6,72.3c-0.7,0-1.2,0.6-1.2,1.2c0,4.2-3.4,7.7-7.7,7.7c-1.3,0-2.5-0.3-3.6-0.9c2.7-4,4.2-8.5,4.2-13.3  c0-0.7-0.6-1.2-1.2-1.2H51.2v-7.1h27.6c0.4,0,0.9-0.2,1.1-0.6s0.2-0.9,0-1.2L51.1,5c-0.3-0.5-0.9-0.7-1.4-0.6  c-0.4,0.1-0.7,0.4-0.9,0.8c0,0,0,0-0.1,0.1L20.1,56.9c-0.2,0.4-0.2,0.9,0,1.2s0.6,0.6,1.1,0.6h27.6v7.1H15c-0.7,0-1.2,0.6-1.2,1.2  c0,4.8,1.5,9.3,4.2,13.3c-1.1,0.6-2.3,0.9-3.6,0.9c-4.2,0-7.7-3.4-7.7-7.7c0-0.7-0.6-1.2-1.2-1.2s-1.2,0.6-1.2,1.2  c0,5.6,4.6,10.2,10.2,10.2c1.9,0,3.6-0.5,5.1-1.4c6.4,7.9,17.7,13.2,30.6,13.2c12.8,0,24.1-5.3,30.6-13.2c1.5,0.9,3.2,1.4,5.1,1.4  c5.6,0,10.2-4.6,10.2-10.2C95.8,72.9,95.3,72.3,94.6,72.3z M51.2,10.5l25.5,45.8H51.2V10.5z M23.3,56.2l25.5-45.8v45.8H23.3z   M83.7,68.3c-0.2,3.8-1.5,7.3-3.6,10.5c-1.3-1.4-2.1-3.2-2.1-5.2v-0.1l0,0l0,0c0-0.7-0.6-1.2-1.2-1.2s-1.2,0.6-1.2,1.2  c0,4.2-3.4,7.7-7.7,7.7c-4.2,0-7.6-3.4-7.7-7.6v-0.1l0,0l0,0c0-0.7-0.6-1.2-1.2-1.2s-1.2,0.6-1.2,1.2c0,4.2-3.4,7.7-7.7,7.7  c-4.2,0-7.6-3.4-7.7-7.6v-0.1l0,0l0,0c0-0.7-0.6-1.2-1.2-1.2S40,72.9,40,73.5c0,4.2-3.4,7.7-7.7,7.7c-4.2,0-7.7-3.4-7.7-7.7  c0-0.7-0.6-1.2-1.2-1.2S22,72.9,22,73.6c0,2-0.8,3.9-2.1,5.3c-2.1-3.2-3.4-6.7-3.6-10.5L83.7,68.3L83.7,68.3z M50,93.1  c-12,0-22.6-4.9-28.6-12.2c0.7-0.7,1.4-1.5,1.9-2.4c1.7,3.1,5.1,5.3,8.9,5.3s7.2-2.1,8.9-5.3c1.7,3.1,5.1,5.3,8.9,5.3  c3.8,0,7.2-2.1,8.9-5.3c1.7,3.1,5.1,5.3,8.9,5.3s7.2-2.1,8.9-5.3c0.5,0.9,1.1,1.7,1.9,2.4C72.6,88.2,62,93.1,50,93.1z"/></svg>