<svg xmlns="http://www.w3.org/2000/svg" xmlns:xlink="http://www.w3.org/1999/xlink" viewBox="0 0 40 50" version="1.1" x="0px" y="0px"><title>039-park-tree-forest-garden</title><desc>Created with Sketch.</desc><g stroke="none" stroke-width="1" fill="none" fill-rule="evenodd"><g transform="translate(-680.000000, -280.000000)" fill="#000000"><g transform="translate(42.000000, 202.000000)"><g transform="translate(640.000000, 80.000000)"><path d="M17,23.75 L17,28 L19,28 L19,23.75 L27,23.75 L21.33,18.5 L25,18.5 L20.59,13.25 L23,13.25 L18,7 L13,13.25 L15.41,13.25 L11,18.5 L14.67,18.5 L9,23.75 L17,23.75 Z M18,36 C27.9411255,36 36,27.9411255 36,18 C36,8.0588745 27.9411255,0 18,0 C8.0588745,0 0,8.0588745 0,18 C0,27.9411255 8.0588745,36 18,36 Z"/></g></g></g></g></svg>