<svg fill="coral" xmlns="http://www.w3.org/2000/svg" data-name="Layer 1" viewBox="0 0 512 512" x="0px" y="0px"><title>a1</title><g data-name="Group"><path data-name="Compound Path" d="M457.833,138h-77.35a9.972,9.972,0,0,1-9.337-6.328L355.764,91.4A30.3,30.3,0,0,0,327.751,72h-142.5a30.348,30.348,0,0,0-28.013,19.45l-15.381,40.127A10.06,10.06,0,0,1,132.517,138H54.167A30.336,30.336,0,0,0,24,168.185V384.327C24,400.869,37.625,414,54.167,414H198.414a136.267,136.267,0,0,0,158.172,0H457.833C474.375,414,488,400.869,488,384.327V168.185A30.336,30.336,0,0,0,457.833,138ZM160.97,303.094A116.53,116.53,0,1,1,277.5,419.625,116.662,116.662,0,0,1,160.97,303.094ZM468,384.327A9.882,9.882,0,0,1,457.833,394H378.981a135.193,135.193,0,0,0,35.049-91.07c0-75.283-61.247-136.449-136.53-136.449S140.97,227.606,140.97,302.89A135.3,135.3,0,0,0,176.019,394H54.167A9.882,9.882,0,0,1,44,384.327V168.185A10.314,10.314,0,0,1,54.167,158h78.35a30.093,30.093,0,0,0,28.013-19.169l15.382-40.269A10.189,10.189,0,0,1,185.249,92h142.5a10.233,10.233,0,0,1,9.337,6.608l15.383,40.13A30.177,30.177,0,0,0,380.483,158h77.35A10.314,10.314,0,0,1,468,168.185Z"/><path data-name="Compound Path" d="M277.5,213.4a89.691,89.691,0,1,0,89.69,89.691A89.792,89.792,0,0,0,277.5,213.4Zm0,159.382a69.691,69.691,0,1,1,69.69-69.691A69.769,69.769,0,0,1,277.5,372.785Z"/><path data-name="Path" d="M111,207H87a10,10,0,0,0,0,20h24a10,10,0,0,0,0-20Z"/></g></svg>