<svg fill="black" xmlns="http://www.w3.org/2000/svg" viewBox="0 0 68 85" x="0px" y="0px"><path fill="#79E8CC" fill-rule="evenodd" d="M364,223 C364,229.075132 359.075132,234 353,234 L346.99319,234 C342.703021,240.198941 336.914861,244 331,244 L319,244 C307.25,244 296,229 296,210 C296,208.895431 296.895431,208 298,208 L352,208 C353.104569,208 354,208.895431 354,210 C354,210.68572 353.985347,211.36623 353.956545,212.041013 C359.583781,212.525745 364,217.247141 364,223 Z M353,230 C356.865993,230 360,226.865993 360,223 C360,219.348571 357.204217,216.350132 353.636518,216.02855 C353.001573,221.181808 351.550177,225.902112 349.41957,230 C351.290757,230 351.406606,230 353,230 Z M306.725,232.3 C310.393331,237.191108 315.064641,240 319,240 L331,240 C334.935359,240 339.606669,237.191108 343.275,232.3 C347.190462,227.079384 349.613626,220.066899 349.957637,212 L300.042363,212 C300.386374,220.066899 302.809538,227.079384 306.725,232.3 Z M341.6,190.8 C343.762693,193.68359 343.762693,196.80847 342.49051,199.635544 C342.174711,200.33732 341.849363,200.867516 341.6,201.2 C340.937258,202.083656 339.683656,202.262742 338.8,201.6 C337.916344,200.937258 337.737258,199.683656 338.4,198.8 C338.48397,198.68804 338.658623,198.403421 338.842824,197.994085 C339.570641,196.376715 339.570641,194.760854 338.8,193.6 L338.4,193.2 C336.237307,190.31641 336.237307,187.19153 337.50949,184.364456 C337.825289,183.66268 338.150637,183.132484 338.4,182.8 C339.062742,181.916344 340.316344,181.737258 341.2,182.4 C342.083656,183.062742 342.262742,184.316344 341.6,185.2 C341.51603,185.31196 341.341377,185.596579 341.157176,186.005915 C340.580627,187.287135 340.460799,188.567407 341.216657,190.416657 L341.6,190.8 Z M308.842824,197.994085 C309.554925,196.411637 309.570301,194.830634 308.4,193.2 C306.237307,190.31641 306.237307,187.19153 307.50949,184.364456 C307.825289,183.66268 308.150637,183.132484 308.4,182.8 C309.062742,181.916344 310.316344,181.737258 311.2,182.4 C312.083656,183.062742 312.262742,184.316344 311.6,185.2 C311.51603,185.31196 311.341377,185.596579 311.157176,186.005915 C310.429359,187.623285 310.429359,189.239146 311.414214,190.585786 L311.664101,190.8906 L311.6,190.8 C313.762693,193.68359 313.762693,196.80847 312.49051,199.635544 C312.174711,200.33732 311.849363,200.867516 311.6,201.2 C310.937258,202.083656 309.683656,202.262742 308.8,201.6 C307.916344,200.937258 307.737258,199.683656 308.4,198.8 C308.48397,198.68804 308.658623,198.403421 308.842824,197.994085 Z M326.337929,201.486588 C325.516909,202.225506 324.25233,202.15895 323.513412,201.337929 C322.774494,200.516909 322.84105,199.25233 323.662071,198.513412 C323.806358,198.383553 324.099228,198.048379 324.405409,197.548285 C325.659603,195.499767 325.659603,193.137728 323.414752,190.219422 C320.104047,185.915505 320.104047,181.759027 322.183186,178.3631 C322.710339,177.502083 323.250802,176.883553 323.662071,176.513412 C324.483091,175.774494 325.74767,175.84105 326.486588,176.662071 C327.225506,177.483091 327.15895,178.74767 326.337929,179.486588 C326.193642,179.616447 325.900772,179.951621 325.594591,180.451715 C324.340397,182.500233 324.340397,184.862272 326.585248,187.780578 C329.895953,192.084495 329.895953,196.240973 327.816814,199.6369 C327.289661,200.497917 326.749198,201.116447 326.337929,201.486588 Z" transform="translate(-296 -176)"/></svg>