<svg  xmlns="http://www.w3.org/2000/svg" xmlns:xlink="http://www.w3.org/1999/xlink" version="1.1" x="0px" y="0px" viewBox="-49 141 512 640" style="enable-background:new -49 141 512 512;" xml:space="preserve"><style type="text/css">
	.st0{display:none;}
	.st1{display:inline;}
	.st2{fill:none;stroke:#000000;stroke-width:0.1;stroke-miterlimit:10;}
</style><g class="st0"><g class="st1"><rect x="-49" y="141" class="st2" width="512" height="512"/><line class="st2" x1="-49" y1="637" x2="463" y2="637"/><line class="st2" x1="-49" y1="621" x2="463" y2="621"/><line class="st2" x1="-49" y1="605" x2="463" y2="605"/><line class="st2" x1="-49" y1="589" x2="463" y2="589"/><line class="st2" x1="-49" y1="573" x2="463" y2="573"/><line class="st2" x1="-49" y1="557" x2="463" y2="557"/><line class="st2" x1="-49" y1="541" x2="463" y2="541"/><line class="st2" x1="-49" y1="525" x2="463" y2="525"/><line class="st2" x1="-49" y1="509" x2="463" y2="509"/><line class="st2" x1="-49" y1="493" x2="463" y2="493"/><line class="st2" x1="-49" y1="477" x2="463" y2="477"/><line class="st2" x1="-49" y1="461" x2="463" y2="461"/><line class="st2" x1="-49" y1="445" x2="463" y2="445"/><line class="st2" x1="-49" y1="429" x2="463" y2="429"/><line class="st2" x1="-49" y1="413" x2="463" y2="413"/><line class="st2" x1="-49" y1="397" x2="463" y2="397"/><line class="st2" x1="-49" y1="381" x2="463" y2="381"/><line class="st2" x1="-49" y1="365" x2="463" y2="365"/><line class="st2" x1="-49" y1="349" x2="463" y2="349"/><line class="st2" x1="-49" y1="333" x2="463" y2="333"/><line class="st2" x1="-49" y1="317" x2="463" y2="317"/><line class="st2" x1="-49" y1="301" x2="463" y2="301"/><line class="st2" x1="-49" y1="285" x2="463" y2="285"/><line class="st2" x1="-49" y1="269" x2="463" y2="269"/><line class="st2" x1="-49" y1="253" x2="463" y2="253"/><line class="st2" x1="-49" y1="237" x2="463" y2="237"/><line class="st2" x1="-49" y1="221" x2="463" y2="221"/><line class="st2" x1="-49" y1="205" x2="463" y2="205"/><line class="st2" x1="-49" y1="189" x2="463" y2="189"/><line class="st2" x1="-49" y1="173" x2="463" y2="173"/><line class="st2" x1="-49" y1="157" x2="463" y2="157"/><line class="st2" x1="447" y1="141" x2="447" y2="653"/><line class="st2" x1="431" y1="141" x2="431" y2="653"/><line class="st2" x1="415" y1="141" x2="415" y2="653"/><line class="st2" x1="399" y1="141" x2="399" y2="653"/><line class="st2" x1="383" y1="141" x2="383" y2="653"/><line class="st2" x1="367" y1="141" x2="367" y2="653"/><line class="st2" x1="351" y1="141" x2="351" y2="653"/><line class="st2" x1="335" y1="141" x2="335" y2="653"/><line class="st2" x1="319" y1="141" x2="319" y2="653"/><line class="st2" x1="303" y1="141" x2="303" y2="653"/><line class="st2" x1="287" y1="141" x2="287" y2="653"/><line class="st2" x1="271" y1="141" x2="271" y2="653"/><line class="st2" x1="255" y1="141" x2="255" y2="653"/><line class="st2" x1="239" y1="141" x2="239" y2="653"/><line class="st2" x1="223" y1="141" x2="223" y2="653"/><line class="st2" x1="207" y1="141" x2="207" y2="653"/><line class="st2" x1="191" y1="141" x2="191" y2="653"/><line class="st2" x1="175" y1="141" x2="175" y2="653"/><line class="st2" x1="159" y1="141" x2="159" y2="653"/><line class="st2" x1="143" y1="141" x2="143" y2="653"/><line class="st2" x1="127" y1="141" x2="127" y2="653"/><line class="st2" x1="111" y1="141" x2="111" y2="653"/><line class="st2" x1="95" y1="141" x2="95" y2="653"/><line class="st2" x1="79" y1="141" x2="79" y2="653"/><line class="st2" x1="63" y1="141" x2="63" y2="653"/><line class="st2" x1="47" y1="141" x2="47" y2="653"/><line class="st2" x1="31" y1="141" x2="31" y2="653"/><line class="st2" x1="15" y1="141" x2="15" y2="653"/><line class="st2" x1="-1" y1="141" x2="-1" y2="653"/><line class="st2" x1="-17" y1="141" x2="-17" y2="653"/><line class="st2" x1="-33" y1="141" x2="-33" y2="653"/></g></g><g><path d="M165.1,276.5v36.1c0,16.7,2.4,33.8-13.2,37.6v-73.7c0-2.5-10-2.5-10,0v74.2c-16.6-2.9-13.8-20.6-13.8-38v-36.1   c0-2.5-9.9-2.5-9.9,0v39.6c0,25.8,0.5,42.8,23.3,44.7c0,0-5.1,31.3-5.1,34.8v114.1c0,6.4,2.9,11.9,9.3,12.1c6.6,0.2,10-5.1,10-11.6   V395.8c0-3.5-5.1-34.8-5.1-34.8c22.9-2,23.4-19,23.4-44.8v-39.7C174.2,274,165.1,274,165.1,276.5z"/><path d="M272.9,272c-15.6,0.1-28.2,13.2-28.2,29.1v95.2l29,26.4v88.1c0,6.2,4.9,11.2,10.9,11.2c6.1,0,10.9-5,11-11.2V301.1   C295.7,285,288.7,271.9,272.9,272z"/></g><path d="M207,647c-66.8,0-129.6-26-176.8-73.2S-43,463.8-43,397s26-129.6,73.2-176.8S140.2,147,207,147s129.6,26,176.8,73.2  S457,330.2,457,397s-26,129.6-73.2,176.8S273.8,647,207,647z M207,163C78,163-27,268-27,397S78,631,207,631s234-105,234-234  S336,163,207,163z"/></svg>