<svg fill="coral" xmlns="http://www.w3.org/2000/svg" xmlns:xlink="http://www.w3.org/1999/xlink" version="1.1" x="0px" y="0px" viewBox="0 0 100 125" style="enable-background:new 0 0 100 100;" xml:space="preserve"><path d="M42.3,37.1c-2.8,2.6-4.4,6.3-4.4,10.2v42.2c0,1.9,1.5,3.4,3.4,3.4h20.9c1.9,0,3.4-1.5,3.4-3.4V47.3c0-4-1.7-7.7-4.7-10.4  c-2.6-2.3-4.1-5.7-4.1-9.2v-8.8c0.9-0.3,1.5-1.1,1.5-2.1v-4.6c0-1.2-1-2.2-2.2-2.2h-8.8c-1.2,0-2.2,1-2.2,2.2v4.6  c0,0.9,0.5,1.6,1.2,2v9.3C46.4,31.5,45,34.7,42.3,37.1z M63.6,82.7H39.9V53.5h23.7V82.7z M62.2,90.9H41.3c-0.8,0-1.4-0.6-1.4-1.4  v-4.9h23.7v4.9C63.6,90.3,63,90.9,62.2,90.9z M59.6,38.4c2.5,2.2,4,5.5,4,8.9v4.2H39.9v-4.2c0-3.3,1.3-6.4,3.8-8.7  c2.4-2.2,3.9-4.9,4.5-7.8h7C55.8,33.7,57.3,36.4,59.6,38.4z M54.9,28.8h-6.5c0-0.2,0-0.4,0-0.6v-9.1h6.4v8.7  C54.8,28.1,54.9,28.4,54.9,28.8z M47.2,12.2c0-0.1,0.1-0.2,0.2-0.2h8.8c0.1,0,0.2,0.1,0.2,0.2v4.6c0,0.1-0.1,0.2-0.2,0.2h-0.3h-8.4  h-0.1c-0.1,0-0.2-0.1-0.2-0.2V12.2z"/></svg>