<svg xmlns:dc="http://purl.org/dc/elements/1.1/" xmlns:cc="http://creativecommons.org/ns#" xmlns:rdf="http://www.w3.org/1999/02/22-rdf-syntax-ns#" xmlns:svg="http://www.w3.org/2000/svg" xmlns="http://www.w3.org/2000/svg" xmlns:sodipodi="http://sodipodi.sourceforge.net/DTD/sodipodi-0.dtd" xmlns:inkscape="http://www.inkscape.org/namespaces/inkscape" version="1.1" x="0px" y="0px" viewBox="0 0 100 125"><g transform="translate(0,-952.36218)"><path style="font-size:medium;font-style:normal;font-variant:normal;font-weight:normal;font-stretch:normal;text-indent:0;text-align:start;text-decoration:none;line-height:normal;letter-spacing:normal;word-spacing:normal;text-transform:none;direction:ltr;block-progression:tb;writing-mode:lr-tb;text-anchor:start;baseline-shift:baseline;opacity:1;color:#000000;fill:coral;fill-opacity:1;stroke:none;stroke-width:4;marker:none;visibility:visible;display:inline;overflow:visible;enable-background:accumulate;font-family:Sans;-inkscape-font-specification:Sans" d="m 50,958.36218 c -3.273468,0 -5.86102,1.85103 -7.40625,4.15625 -1.54523,2.30522 -2.296971,5.07269 -2.59375,7.625 a 2.0002,2.0002 0 0 0 0,0.125 l -0.9375,19.96875 -32.125,20.43752 A 2.0002,2.0002 0 0 0 6,1012.3622 l 0,11 a 2.0002,2.0002 0 0 0 2.625,1.9062 l 30.53125,-10.1875 0.78125,12.5313 -7.34375,7.3437 A 2.0002,2.0002 0 0 0 32,1036.3622 l 0,8 a 2.0002,2.0002 0 0 0 2.375,1.9687 l 15.625,-2.9375 15.625,2.9375 A 2.0002,2.0002 0 0 0 68,1044.3622 l 0,-8 a 2.0002,2.0002 0 0 0 -0.59375,-1.4063 l -7.34375,-7.3437 0.78125,-12.5313 30.53125,10.1875 A 2.0002,2.0002 0 0 0 94,1023.3622 l 0,-11 a 2.0002,2.0002 0 0 0 -0.9375,-1.6875 L 60.9375,990.23718 60,970.26843 a 2.0002,2.0002 0 0 0 0,-0.125 c -0.296779,-2.55231 -1.04852,-5.31978 -2.59375,-7.625 C 55.86102,960.21321 53.273468,958.36218 50,958.36218 z m 0,4 c 1.88607,0 3.032243,0.83803 4.0625,2.375 1.030257,1.53697 1.695763,3.76481 1.9375,5.84375 l 1,20.875 a 2.0002,2.0002 0 0 0 0.9375,1.59375 L 90,1013.4559 l 0,7.125 -30.375,-10.125 A 2.0002,2.0002 0 0 0 57,1012.2372 l -1,16 a 2.0002,2.0002 0 0 0 0.59375,1.5312 l 7.40625,7.4063 0,4.7812 -13.625,-2.5625 a 2.0002,2.0002 0 0 0 -0.75,0 l -13.625,2.5625 0,-4.7812 7.40625,-7.4063 A 2.0002,2.0002 0 0 0 44,1028.2372 l -1,-16 a 2.0002,2.0002 0 0 0 -2.625,-1.7813 l -30.375,10.125 0,-7.125 32.0625,-20.40622 A 2.0002,2.0002 0 0 0 43,991.45593 l 1,-20.875 c 0.241737,-2.07894 0.907243,-4.30678 1.9375,-5.84375 1.030257,-1.53697 2.17643,-2.375 4.0625,-2.375 z"/></g></svg>