<svg fill="coral" xmlns="http://www.w3.org/2000/svg" data-name="Layer 1" viewBox="0 0 100 125" x="0px" y="0px"><title>Backpack 2</title><path d="M81.34,18.16H64a14,14,0,0,0-28,0H18.66A7.82,7.82,0,0,0,10.85,26v7.58a7.82,7.82,0,0,0,7.81,7.81h0V48.7A6.33,6.33,0,0,0,24.24,55v5.52h-.72a7.31,7.31,0,0,0-7.31,7.31V80.21a5.62,5.62,0,0,0,5.61,5.61h2.42v.49A8.7,8.7,0,0,0,32.92,95H67.08a8.7,8.7,0,0,0,8.68-8.69v-.49h2.42a5.62,5.62,0,0,0,5.61-5.61V67.81a7.31,7.31,0,0,0-7.31-7.31h-.72V55A6.33,6.33,0,0,0,81.3,48.7V41.36h0a7.82,7.82,0,0,0,7.81-7.81V26A7.82,7.82,0,0,0,81.34,18.16Zm-2.83,1.78V39.57h-.67V19.94ZM50,6.78A12.28,12.28,0,0,1,62.24,18.16h-.89a11.38,11.38,0,0,0-22.68,0h-.89A12.28,12.28,0,0,1,50,6.78Zm9.55,11.38H40.45a9.59,9.59,0,0,1,19.09,0Zm-23.6,1.78H76.06V39.57H23.94V19.94Zm-13.79,0V39.57h-.67V19.94ZM18.66,39.57a6,6,0,0,1-6-6V26a6,6,0,0,1,6-6h1V39.57h-1Zm4.85,22.72h.72v1.43A7.14,7.14,0,0,1,18,70.8v-3A5.53,5.53,0,0,1,23.51,62.29ZM21.82,84A3.83,3.83,0,0,1,18,80.21V76.49h1.29v2.35a.89.89,0,0,0,1.78,0V76.26a.88.88,0,0,0,.31-.66.89.89,0,0,0-.89-.89H18V72.6a8.91,8.91,0,0,0,6.25-3.55V84Zm56.36,0H75.76v-15A8.91,8.91,0,0,0,82,72.6v2.11H79.52a.89.89,0,0,0-.89.89.88.88,0,0,0,.31.66v2.58a.89.89,0,0,0,1.78,0V76.49H82v3.72A3.83,3.83,0,0,1,78.18,84ZM82,67.81v3a7.14,7.14,0,0,1-6.25-7.08V62.29h.72A5.53,5.53,0,0,1,82,67.81ZM74,61.4V86.31a6.91,6.91,0,0,1-6.9,6.91H32.92A6.91,6.91,0,0,1,26,86.31V55h8.53v.6h-.72a2,2,0,0,0,0,3.91h.73a2.94,2.94,0,0,0,2.93,2.75h.82a2.93,2.93,0,0,0,2.93-2.75H42a2,2,0,0,0,0-3.91h-.72V55H58.76v.6H58a2,2,0,0,0,0,3.91h.74a2.93,2.93,0,0,0,2.93,2.75h.82a2.94,2.94,0,0,0,2.93-2.75h.73a2,2,0,0,0,0-3.91h-.72V55H74V61.4ZM36.34,53.25V48.94a1.15,1.15,0,0,1,1.15-1.15h.82a1.15,1.15,0,0,1,1.15,1.15v6.69H36.34V53.25Zm3.12,4.51H33.83a.18.18,0,0,1-.17-.17.17.17,0,0,1,.17-.17H42a.16.16,0,0,1,.17.17.17.17,0,0,1-.17.17H39.46Zm0,1.78a1.15,1.15,0,0,1-1.13,1h-.82a1.15,1.15,0,0,1-1.13-1Zm21.1-6.29V48.94a1.15,1.15,0,0,1,1.15-1.15h.82a1.15,1.15,0,0,1,1.15,1.15v6.69H60.54V53.25Zm3.12,4.51H58a.17.17,0,0,1-.16-.17.16.16,0,0,1,.16-.17h8.15a.17.17,0,0,1,.17.17.18.18,0,0,1-.17.17H63.66Zm0,1.78a1.15,1.15,0,0,1-1.13,1h-.82a1.15,1.15,0,0,1-1.13-1ZM79.52,48.7a4.57,4.57,0,0,1-3.76,4.48,4.72,4.72,0,0,1-.8.07H65.45V48.94A2.94,2.94,0,0,0,62.51,46h-.82a2.94,2.94,0,0,0-2.94,2.94v4.31H41.24V48.94A2.94,2.94,0,0,0,38.31,46h-.82a2.94,2.94,0,0,0-2.94,2.94v4.31H25a4.72,4.72,0,0,1-.8-.07,4.57,4.57,0,0,1-3.76-4.48V41.36h59Zm7.84-15.15a6,6,0,0,1-6,6h-1V19.94h1a6,6,0,0,1,6,6ZM67.45,67.25H32.55A1.55,1.55,0,0,0,31,68.79h0v5.54a4.57,4.57,0,0,0,4.22,4.55v4.68a4.53,4.53,0,0,0,4.51,4.52H60.26a4.53,4.53,0,0,0,4.52-4.52V78.89A4.57,4.57,0,0,0,69,74.34V68.79h0A1.55,1.55,0,0,0,67.45,67.25ZM63,83.57a2.75,2.75,0,0,1-2.74,2.74H39.73A2.74,2.74,0,0,1,37,83.57V78.9H63Zm4.22-9.23a2.8,2.8,0,0,1-2.79,2.78H35.58a2.8,2.8,0,0,1-2.79-2.78V70.58H67.22Zm-18.9.88a1.68,1.68,0,1,1,2,1.64,1.54,1.54,0,0,1-.34,0,1.47,1.47,0,0,1-.34,0A1.68,1.68,0,0,1,48.32,75.21Zm2.16-33a.67.67,0,0,0-1,0l-4.28,4.28a.67.67,0,0,0,0,.95l4.28,4.28a.68.68,0,0,0,1,0l4.28-4.28a.67.67,0,0,0,0-.95ZM50,50.27l-3.34-3.34L50,43.6l3.35,3.34Zm-.54-4.38V48a.67.67,0,0,1-1.34,0V45.89a.67.67,0,0,1,1.34,0ZM50.55,48V45.89a.67.67,0,0,1,1.34,0V48a.67.67,0,0,1-1.34,0Z"/></svg>