<svg fill="coral" xmlns:dc="http://purl.org/dc/elements/1.1/" xmlns:cc="http://creativecommons.org/ns#" xmlns:rdf="http://www.w3.org/1999/02/22-rdf-syntax-ns#" xmlns:svg="http://www.w3.org/2000/svg" xmlns="http://www.w3.org/2000/svg" xmlns:sodipodi="http://sodipodi.sourceforge.net/DTD/sodipodi-0.dtd" xmlns:inkscape="http://www.inkscape.org/namespaces/inkscape" version="1.1" x="0px" y="0px" viewBox="0 0 100 125">
	<g transform="translate(0,-952.36218)"><path d="m 50,955.36224 c -0.49773,0.029 -0.85404,0.13727 -1.125,0.3125 l -41.9999995,28 c -0.73181,0.46524 -1.09679,1.45181 -0.84375,2.28125 0.25305,0.82943 1.10187,1.42875 1.96875,1.40625 l 8.9999995,0 0,41.99996 -8.9999995,0 c -1.04717,10e-5 -1.9999,0.9528 -2,2 l 0,6 c -1.04717,10e-5 -1.9999,0.9528 -2,2 l 0,8 c 1e-4,1.0472 0.95283,1.9999 2,2 l 87.9999995,0 c 1.047169,-10e-5 1.999899,-0.9528 2,-2 l 0,-8 c -1.01e-4,-1.0472 -0.952831,-1.9999 -2,-2 l 0,-6 c -1.01e-4,-1.0472 -0.952831,-1.9999 -2,-2 l -9,0 0,-41.99996 9,0 c 0.866879,0.0225 1.715699,-0.57682 1.96875,-1.40625 0.253039,-0.82944 -0.111941,-1.81601 -0.84375,-2.28125 l -42,-28 C 50.732431,955.4172 50.428801,955.36005 50,955.36224 z m 0,4.40625 35.375,23.59375 -70.749999,0 z m -29,27.59375 4,0 0,41.99996 -4,0 z m 8,0 6,0 0,41.99996 -6,0 z m 10,0 4,0 0,41.99996 -4,0 z m 8,0 6,0 0,41.99996 -6,0 z m 10,0 4,0 0,41.99996 -4,0 z m 8,0 6,0 0,41.99996 -6,0 z m 10,0 4,0 0,41.99996 -4,0 z m -64.999999,45.99996 79.999999,0 0,4 -79.999999,0 z m -2.0000005,8 83.9999995,0 0,4 -83.9999995,0 z" style="text-indent:0;text-transform:none;direction:ltr;block-progression:tb;baseline-shift:baseline;color:#000000;enable-background:accumulate;" fill="coral" fill-opacity="1" stroke="none" marker="none" visibility="visible" display="inline" overflow="visible"/></g>
</svg>