<svg xmlns:dc="http://purl.org/dc/elements/1.1/" xmlns:cc="http://creativecommons.org/ns#" xmlns:rdf="http://www.w3.org/1999/02/22-rdf-syntax-ns#" xmlns:svg="http://www.w3.org/2000/svg" xmlns="http://www.w3.org/2000/svg" xmlns:sodipodi="http://sodipodi.sourceforge.net/DTD/sodipodi-0.dtd" xmlns:inkscape="http://www.inkscape.org/namespaces/inkscape" version="1.1" x="0px" y="0px" viewBox="0 0 100 125"><g transform="translate(0,-952.36218)"><path style="text-indent:0;text-transform:none;direction:ltr;block-progression:tb;baseline-shift:baseline;color:#000000;enable-background:accumulate;" d="m 50,958.37765 c -15.992578,0 -29,13.00742 -29,29 0,6.27473 3.790516,14.36985 6.25,18.93755 l 21,39 a 2.0002,2.0002 0 0 0 3.5,0 l 21,-39 c 2.45945,-4.5676 6.25,-12.66281 6.25,-18.93755 0,-15.99258 -13.00743,-29 -29,-29 z m 0,4 c 13.83081,0 25,11.16918 25,25 0,4.47386 -3.46831,12.79385 -5.75,17.03125 l -19.25,35.75 -19.25,-35.75 C 28.468264,1000.1714 25,991.85152 25,987.37765 c 0,-13.83082 11.169178,-25 25,-25 z m 0,10 c -8.260594,0 -15,6.7395 -15,15 0,8.26058 6.739424,14.99995 15,14.99995 8.26059,0 15,-6.73937 15,-14.99995 0,-8.26049 -6.73939,-15 -15,-15 z m 0,4 c 6.098813,0 11,4.90129 11,11 0,6.09882 -4.901168,11 -11,11 -6.098812,0 -11,-4.90118 -11,-11 0,-6.0987 4.901206,-11 11,-11 z" fill="coral" fill-opacity="1" stroke="none" marker="none" visibility="visible" display="inline" overflow="visible"/></g></svg>