<svg xmlns="http://www.w3.org/2000/svg" xmlns:xlink="http://www.w3.org/1999/xlink" version="1.1" x="0px" y="0px" viewBox="0 0 100 125" enable-background="new 0 0 100 100" xml:space="preserve"><path fill="#000000" fill-rule="evenodd" clip-rule="evenodd" d="M56.8994141,27.9511719L61.5,33.9003906H65  c0.4326172,0,0.75,0.1503906,0.9492188,0.4492188L84.6494141,58.25H93.75c0.3662109,0,0.6660156,0.1171875,0.8994141,0.3496094  C94.8828125,58.8671875,95,59.1660156,95,59.5v3.75c0,0.5332031-0.2333984,0.9003906-0.7001953,1.0996094l-11.2001953,5  l-2.4501953,4.5507813c0.7333984,0.1992188,1.4501953,0.5,2.1503906,0.9003906c0.7333984,0.4003906,1.3994141,0.8828125,2,1.4492188  c0.2666016,0.234375,0.4169922,0.5332031,0.4501953,0.9003906c0,0.3339844-0.1171875,0.6328125-0.3505859,0.9003906  c-0.2333984,0.265625-0.5166016,0.4003906-0.8496094,0.4003906c-0.3671875,0-0.6669922-0.1171875-0.9003906-0.3515625  C82.8496094,77.8339844,82.3330078,77.4667969,81.5996094,77c-1-0.5332031-1.9501953-0.7988281-2.8496094-0.7988281  c-0.9335938,0-2.1171875,0.4648438-3.5507813,1.3984375c-2.0332031,1.1679688-3.6162109,1.75-4.75,1.75  c-1.5-0.0332031-3.1992188-1.1152344-5.0996094-3.25C63.9824219,74.5332031,62.6992188,73.75,61.5,73.75  c-0.7001953,0-1.9169922,0.6835938-3.6503906,2.0507813c-2.2001953,1.765625-3.9833984,2.6503906-5.3496094,2.6503906  c-1.3339844-0.0351563-2.8671875-0.9003906-4.6005859-2.6015625C46.5996094,74.6171875,45.3496094,74,44.1494141,74  c-0.7998047,0-2.0664063,0.6835938-3.7998047,2.0507813c-2.2998047,1.7988281-3.8828125,2.6992188-4.75,2.6992188  c-0.9667969,0-2.4003906-0.75-4.2998047-2.25c-1.3671875-1.1660156-2.3173828-1.75-2.8505859-1.75  c-1.4326172-0.0332031-2.7998047,0.5996094-4.0996094,1.9003906c-1.8671875,1.6660156-3.4003906,2.5-4.5996094,2.5  c-1.0332031-0.0332031-2.3339844-0.734375-3.9003906-2.0996094c-1.0332031-1-1.8164063-1.5-2.3496094-1.5  c-0.7001953-0.0332031-1.4169922,0.0996094-2.1503906,0.4003906C10.75,76.25,10.3164063,76.5,10.0498047,76.7011719  c-0.5673828,0.3984375-1.2167969,1.0664063-1.9501953,2c-0.1669922,0.265625-0.4169922,0.4316406-0.75,0.5  c-0.3671875,0.0664063-0.6835938,0-0.9501953-0.2011719c-0.2998047-0.1660156-0.4833984-0.4160156-0.5498047-0.75  c-0.0664063-0.3671875,0-0.6835938,0.2001953-0.9492188c0.8330078-1.2011719,1.6669922-2.0839844,2.5-2.6503906L8.75,74.5  l-3.3505859-3.3496094C5.1328125,70.8828125,5,70.5839844,5,70.25V59.5c0-0.3339844,0.1328125-0.6328125,0.3994141-0.9003906  C5.6328125,58.3671875,5.9160156,58.25,6.25,58.25h1.7998047V47.1503906c0-0.234375,0.0498047-0.4667969,0.1494141-0.6992188  L8.3496094,46.25l7-11.6992188h0.0498047L23.3496094,21.25c0.2666016-0.4003906,0.6171875-0.5996094,1.0498047-0.5996094H30.25  c0.3330078,0,0.6162109,0.1171875,0.8496094,0.3496094C31.3662109,21.2675781,31.5,21.5664063,31.5,21.9003906v12h5.2998047  v-5.1992188c0-0.3339844,0.1328125-0.6347656,0.3994141-0.9003906c0.2333984-0.234375,0.5175781-0.3496094,0.8505859-0.3496094  h17.8496094C56.2998047,27.4511719,56.6328125,27.6171875,56.8994141,27.9511719z M25.1494141,23.1503906l-6.4501953,10.8007813  L29,33.9003906v-10.75H25.1494141z M55.2998047,29.9511719h-16v3.9492188h19.0498047L55.2998047,29.9511719z M47.9492188,40.9003906  l9.7001953,10.9003906c0.1669922,0.265625,0.2001953,0.5332031,0.1005859,0.7988281  c-0.1005859,0.3007813-0.3339844,0.4511719-0.7001953,0.4511719H10.5996094V58.25h70.8496094L64.3496094,36.4003906h-2.5498047  l2.0996094,2.6992188c0.1337891,0.1679688,0.1835938,0.3515625,0.1503906,0.5507813s-0.1337891,0.3671875-0.2998047,0.5  c-0.1337891,0.0996094-0.2832031,0.1503906-0.4501953,0.1503906c-0.2666016,0-0.4833984-0.0996094-0.6503906-0.3007813  l-2.75-3.5996094l-42.75,0.0507813l-2.4501953,4.1992188h32.7001953  C47.5996094,40.6503906,47.7832031,40.734375,47.9492188,40.9003906z M51.9492188,47.7011719H10.5996094v3.8496094h44.7998047  L51.9492188,47.7011719z M47.0498047,42.1503906h-33.25l-2.4003906,4h39.2001953L47.0498047,42.1503906z M7.5,64.0507813h81.25  l3.75-1.6503906V60.75h-85V64.0507813z M17.5498047,75.1503906c1.0996094,0.9667969,1.8496094,1.4667969,2.25,1.5  c0.5332031,0,1.4667969-0.6328125,2.7998047-1.9003906c1.8330078-1.6992188,3.7832031-2.5332031,5.8496094-2.5  c1.1337891,0,2.6171875,0.75,4.4501953,2.25c1.3330078,1.0664063,2.2333984,1.6503906,2.7001953,1.75L36.25,75.8496094  c0.6992188-0.3984375,1.5498047-0.9824219,2.5498047-1.75c2.3330078-1.765625,4.1328125-2.6328125,5.3994141-2.5996094  c1.7675781,0,3.5839844,0.8496094,5.4501953,2.5507813c1.2666016,1.2324219,2.2333984,1.8496094,2.9003906,1.8496094  c0.7001953,0,1.9667969-0.6835938,3.7998047-2.0507813C58.5166016,72.1171875,60.2167969,71.25,61.4492188,71.25h0.1005859  c1.9667969,0.0664063,3.8662109,1.1328125,5.7001953,3.2011719c1.3662109,1.5996094,2.4326172,2.3984375,3.1992188,2.3984375  c0.6337891,0,1.7832031-0.4824219,3.4501953-1.4492188c1.5673828-1,2.9169922-1.5664063,4.0498047-1.6992188l3.1503906-5.9003906  c0.1669922-0.2675781,0.3671875-0.4511719,0.5996094-0.5507813l3.7001953-1.6992188H7.5V69.75l3.6992188,3.5996094  c0.9667969-0.2324219,1.7675781-0.3320313,2.4003906-0.2988281C14.7324219,73.1171875,16.0498047,73.8164063,17.5498047,75.1503906z   M64.7998047,40.5996094c0.2001953,0.0332031,0.3662109,0.1171875,0.5,0.25l0.1494141,0.25  c0.1669922,0.1679688,0.2333984,0.3515625,0.2001953,0.5507813s-0.1328125,0.3671875-0.2998047,0.5  c-0.1328125,0.0996094-0.2832031,0.1503906-0.4501953,0.1503906c-0.2333984,0-0.4326172-0.0839844-0.5996094-0.25l-0.2001953-0.25  c-0.2998047-0.4003906-0.25-0.75,0.1503906-1.0507813C64.4160156,40.6171875,64.5996094,40.5664063,64.7998047,40.5996094z"/></svg>