<svg xmlns="http://www.w3.org/2000/svg" xmlns:xlink="http://www.w3.org/1999/xlink" version="1.1" x="0px" y="0px" viewBox="0 0 100 125" enable-background="new 0 0 100 100" xml:space="preserve"><g><g><g><rect x="30.903" y="41.367" transform="matrix(-0.7071 0.7071 -0.7071 -0.7071 120.7106 50)" width="38.194" height="17.266"/><path d="M10.298,51.7c-2.217,2.217-2.041,5.999,0.392,8.432l3.176,3.176c0.234,0.19,0.461,0.393,0.679,0.611l21.538,21.538     c0.218,0.218,0.42,0.445,0.611,0.679l3.176,3.176c2.432,2.432,6.214,2.608,8.431,0.391s2.041-5.999-0.391-8.431l-29.18-29.18     C16.296,49.658,12.515,49.483,10.298,51.7z"/><path d="M5.976,66.807c-1.407,1.407-1.277,3.825,0.29,5.391l21.538,21.538c1.565,1.565,3.983,1.695,5.39,0.289     c1.407-1.407,1.278-3.825-0.288-5.391L11.367,67.096C9.801,65.529,7.382,65.4,5.976,66.807z"/><path d="M63.918,14.544c-0.218-0.218-0.42-0.445-0.611-0.679l-3.176-3.176c-2.433-2.433-6.215-2.609-8.432-0.392     s-2.041,5.999,0.392,8.432l29.18,29.18c2.432,2.432,6.214,2.608,8.431,0.391s2.041-5.999-0.391-8.431l-3.176-3.176     c-0.234-0.19-0.461-0.393-0.679-0.611L63.918,14.544z"/><path d="M66.807,5.976c-1.407,1.407-1.278,3.825,0.289,5.392l21.538,21.538c1.565,1.565,3.984,1.694,5.391,0.288     c1.407-1.407,1.277-3.825-0.289-5.39L72.198,6.265C70.632,4.699,68.214,4.569,66.807,5.976z"/><path d="M15.292,86.551c1.33,1.33,1.352,3.463,0.05,4.765l0,0c-1.302,1.302-3.436,1.28-4.765-0.05l-1.844-1.844     c-1.33-1.33-1.352-3.463-0.05-4.765l0,0c1.302-1.302,3.435-1.28,4.765,0.05L15.292,86.551z"/><path d="M86.082,15.762c1.33,1.33,3.463,1.352,4.765,0.05l0,0c1.302-1.302,1.28-3.436-0.05-4.765l-1.844-1.844     c-1.33-1.33-3.463-1.352-4.765-0.05l0,0c-1.302,1.302-1.28,3.435,0.05,4.765L86.082,15.762z"/></g></g></g></svg>