<svg xmlns="http://www.w3.org/2000/svg" xmlns:xlink="http://www.w3.org/1999/xlink" viewBox="0 0 24 30" version="1.1" x="0px" y="0px"><title>Location</title><desc>Created with Sketch.</desc><g stroke="none" stroke-width="1" fill="none" fill-rule="evenodd"><g><rect x="0" y="0" width="24" height="24"/><path d="M13.622055,20.8382575 C13.496588,21.012198 13.3439603,21.1648256 13.1700198,21.2902926 C12.2741776,21.9364825 11.0241137,21.7340994 10.3779238,20.8382572 C6.79264586,15.8677958 5,11.9217133 5,9 C5,5.13400675 8.13400675,2 12,2 C15.8659932,2 19,5.13400675 19,9 C19,11.9217154 17.2073517,15.8678012 13.622055,20.8382575 Z M12.8110292,20.2532472 C16.2840919,15.4383857 18,11.6612252 18,9 C18,5.6862915 15.3137085,3 12,3 C8.6862915,3 6,5.6862915 6,9 C6,11.6612233 7.71590567,15.4383804 11.1889726,20.2532496 C11.512057,20.7011707 12.1370858,20.8023636 12.5850096,20.4792667 C12.6719806,20.4165326 12.7482951,20.3402182 12.8110292,20.2532472 Z M12,12 C10.3431458,12 9,10.6568542 9,9 C9,7.34314575 10.3431458,6 12,6 C13.6568542,6 15,7.34314575 15,9 C15,10.6568542 13.6568542,12 12,12 Z M12,11 C13.1045695,11 14,10.1045695 14,9 C14,7.8954305 13.1045695,7 12,7 C10.8954305,7 10,7.8954305 10,9 C10,10.1045695 10.8954305,11 12,11 Z" fill="#000000" fill-rule="nonzero"/></g></g></svg>