<svg fill="darkgreen" xmlns="http://www.w3.org/2000/svg" xmlns:xlink="http://www.w3.org/1999/xlink" version="1.1" x="0px" y="0px" viewBox="0 0 100 125" style="enable-background:new 0 0 100 100;" xml:space="preserve"><path d="M50,8.4C27,8.4,8.4,27,8.4,50S27,91.6,50,91.6S91.6,73,91.6,50S73,8.4,50,8.4z M51.3,22.2c2.9,0,5.3,2.4,5.3,5.3  c0,2.9-2.4,5.3-5.3,5.3c-2.9,0-5.3-2.4-5.3-5.3C46,24.6,48.3,22.2,51.3,22.2z M68.7,48.2c-0.5,1.5-2.2,2.4-3.8,1.8l-8.4-3.1  c-0.4-0.1-0.9-0.4-1.3-0.9l-2.1-2.7l-1.9,8l8.9,6.5c0.7,0.5,1.2,1.4,1.2,2.4v15.6c0,1.6-1.3,2.9-2.9,2.9s-2.9-1.3-2.9-2.9V61.6  l-8.2-5.9l-1,7.1c-0.1,0.4-0.2,0.8-0.4,1.2l-8.3,13.5c-0.5,0.9-1.5,1.4-2.5,1.4c-0.5,0-1-0.1-1.5-0.4c-1.4-0.9-1.8-2.7-1-4l8-13  l1.3-9.4c0.1-0.1,0.1-0.2,0.1-0.3l2.3-10.2L41,43l-4.2,7.4c-0.6,1-1.5,1.5-2.6,1.5c-0.5,0-1-0.1-1.5-0.4c-1.4-0.8-1.9-2.7-1.1-4  l4.7-8.2c0.7-1,1.9-1.5,2.9-1.9l7.1-3c0.5-0.3,1.1-0.5,1.7-0.6c0.7-0.1,1.3,0.1,1.8,0.1c0.7,0,1.4,0.1,2.1,0.1  c1.8,0.3,2.7,2.1,3.8,3.3c1.2,1.5,2.4,2.9,3.6,4.4l7.7,2.8C68.5,45,69.3,46.7,68.7,48.2z"/></svg>