<svg xmlns="http://www.w3.org/2000/svg" class="icon" viewBox="0 0 100 100" version="1.1" x="0px" y="0px"><path fill="#000000" d="M531.58 886.22h-82.1c-22.62 0-37.84-4.29-46.52-13.11a26.51 26.51 0 0 1-7.7-19.44c0.19-12.6 1-85.3 1-85.3v-323c0.1-7.15 1.41-42.64 16.76-55.16 8.21-6.7 25.6-18 39.58-27.05 6.89-4.47 14-9.1 15.76-10.46 0 0 3.68-3 4.46-17.94 0.4-7.79 0.72-69.49 0.87-99.14 0-3.78 0-7.15 0.05-10-7.37-1.87-15.44-7.09-15.32-22.68s7.18-21.54 14-23.76v-1.29c0.06-2.36 0.12-4.36 0.11-5-0.81-8.69 15.38-18.71 18-19.37 1.59-0.4 2.83-0.71 41.64-0.32a10.36 10.36 0 0 1 10.26 10.47c-0.06 5.72-5 10.09-10.47 10.26-14-0.14-29.37-0.21-35.39-0.13-1 0.86-2.29 2-3.37 3v1.6c-0.09 3.43-0.19 7.62-0.19 9.73a10.37 10.37 0 0 1-10.12 10.36 30.49 30.49 0 0 0-3.25 0.2 19.3 19.3 0 0 0-0.42 4.39 16.68 16.68 0 0 0 0.15 2.61c1.15 0.17 2.9 0.26 4.18 0.32l1.27 0.07a10.37 10.37 0 0 1 9.78 10.55c0 1-0.06 8.42-0.11 19.06-0.23 44.43-0.5 92.48-0.9 100.12-0.86 16.53-4.94 27.4-12.44 33.22-2.32 1.81-7.77 5.36-17.2 11.48-12.84 8.34-30.43 19.75-37.77 25.73-5.14 4.2-8.88 23.69-9.13 39.26v323c0 0.12-0.81 72.88-1 85.5a5.83 5.83 0 0 0 1.74 4.58c2.05 2.08 9.25 6.93 31.76 6.93h82.09a10.36 10.36 0 0 1 0 20.73z m-52.06-679.61z m13.7-34.86v1.65a10.6 10.6 0 0 0-0.01-1.65z"/><path fill="#000000" d="M611 886.22h-82.13a10.36 10.36 0 1 1 0-20.73H611c22.5 0 29.7-4.85 31.76-6.93a5.83 5.83 0 0 0 1.74-4.58c-0.19-12.62-1-85.39-1-85.39V445.37c-0.26-15.41-4-34.89-9.13-39.09-7.34-6-24.92-17.4-37.77-25.74-9.42-6.12-14.87-9.67-17.2-11.48-7.49-5.82-11.57-16.69-12.43-33.22-0.4-7.59-0.67-55.42-0.9-99.65-0.06-11-0.1-18.76-0.12-19.81a10.37 10.37 0 0 1 9.78-10.56l1.27-0.07c1.28-0.06 3-0.16 4.18-0.32a16.68 16.68 0 0 0 0.15-2.61 19.36 19.36 0 0 0-0.42-4.39 30.62 30.62 0 0 0-3.25-0.2 10.37 10.37 0 0 1-10.13-10.36c0-2.12-0.11-6.23-0.19-9.59v-0.61c-1.43-1-3-2-3.81-2.5l-0.67-0.26c-0.65-0.17-6.11-1.25-34.3-1h-0.11a10.36 10.36 0 0 1-0.1-20.73c35.49-0.35 39.57 1.34 42.53 2.59v0.06c3.83 1.6 17.92 8.22 17.07 17.74s0.09 1.9 0.14 4.16v1.15c6.79 2.21 13.85 8.06 14 23.76s-7.94 20.81-15.32 22.68c0 3 0 6.66 0.05 10.74 0.15 29.52 0.47 90.94 0.87 98.67 0.78 14.92 4.42 17.9 4.45 17.93 1.75 1.36 8.88 6 15.77 10.46 14 9.07 31.37 20.36 39.58 27.06 15.35 12.51 16.65 48 16.76 55v323.31s0.81 72.59 1 85.18a26.51 26.51 0 0 1-7.7 19.44c-8.75 8.83-23.97 13.11-46.55 13.11z m-30-679.89z m-17-31c0.23 0.08 0.51 0.17 0.83 0.26-0.32-0.07-0.62-0.16-0.93-0.27z m3.33-3.51a10.33 10.33 0 0 0 0 1.73c-0.12-0.96-0.11-1.55-0.1-1.74z"/><path fill="#000000" d="M538.55 809.86c-68.77 0-125.86-18.22-129.51-19.41a10.37 10.37 0 0 1 6.42-19.71c1.32 0.43 132.56 42.2 232.2-2.39a10.36 10.36 0 1 1 8.47 18.92c-38.07 17.04-79.61 22.59-117.58 22.59zM534.83 369.57A194.66 194.66 0 0 1 488 364a10.37 10.37 0 0 1 5.42-20c0.4 0.11 40.59 10.68 79.84 0a10.37 10.37 0 0 1 5.44 20 168.05 168.05 0 0 1-43.87 5.57z"/></svg>