<svg fill="green" xmlns="http://www.w3.org/2000/svg" data-name="Layer 1" viewBox="0 0 128 160" x="0px" y="0px"><defs><style>.cls-1{font-size:21px;font-family:MyriadPro-Regular, Myriad Pro;}.cls-2{letter-spacing:-0.05em;}.cls-3{letter-spacing:0em;}</style></defs><title>Artboard 2</title><text class="cls-1" transform="translate(42.53 -29)"><tspan class="cls-2">T</tspan><tspan class="cls-3" x="9.49" y="0">r</tspan><tspan x="16.25" y="0">ain</tspan></text><polygon points="38 111 90 111 86 107 42 107 38 111"/><polygon points="53 119 75 119 81 115 47 115 53 119"/><polygon points="78 99 50 99 46 103 82 103 78 99"/><path d="M64,0a64,64,0,1,0,64,64A64,64,0,0,0,64,0Zm0,124a59.65,59.65,0,0,1-34.82-11.18L46,96H82l16.82,16.82A59.65,59.65,0,0,1,64,124ZM40,75h8a4,4,0,0,1,4,4v1a4,4,0,0,1-4,4H40a4,4,0,0,1-4-4V79A4,4,0,0,1,40,75ZM39,42.65V26h8V37.52A31.09,31.09,0,0,0,39,42.65ZM88,75a4,4,0,0,1,4,4v1a4,4,0,0,1-4,4H80a4,4,0,0,1-4-4V79a4,4,0,0,1,4-4ZM81,37.52V26h8V42.65A31.09,31.09,0,0,0,81,37.52ZM77,36a43.58,43.58,0,0,0-26,0V26H77ZM71,50V64a6,6,0,0,1-6,6H63a6,6,0,0,1-6-6V50a6,6,0,0,1,6-6h2A6,6,0,0,1,71,50Zm32.29,59.29L89.11,95.11A6,6,0,0,0,92,90V87.65A6,6,0,0,0,96,82V56a5.94,5.94,0,0,0-.18-1.41A18.18,18.18,0,0,0,93,47.28V26c0-4.42-13-8-29-8s-29,3.58-29,8V47.28a18.18,18.18,0,0,0-2.82,7.31A5.94,5.94,0,0,0,32,56V82a6,6,0,0,0,4,5.65V90a6,6,0,0,0,2.89,5.11L24.71,109.29a60,60,0,1,1,78.58,0Z"/><circle cx="64" cy="51" r="4"/><circle cx="64" cy="63" r="4"/></svg>