<svg xmlns:dc="http://purl.org/dc/elements/1.1/" xmlns:cc="http://creativecommons.org/ns#" xmlns:rdf="http://www.w3.org/1999/02/22-rdf-syntax-ns#" xmlns:svg="http://www.w3.org/2000/svg" xmlns="http://www.w3.org/2000/svg" xmlns:sodipodi="http://sodipodi.sourceforge.net/DTD/sodipodi-0.dtd" xmlns:inkscape="http://www.inkscape.org/namespaces/inkscape" version="1.1" x="0px" y="0px" viewBox="0 0 48 60"><g transform="translate(0,-1004.3622)"><g transform="translate(98.999563,-66.0312)"><g><g transform="translate(-98.999562,63.031208)"><path style="color:#000000;text-indent:0;text-decoration-line:none;text-transform:none;direction:ltr;block-progression:tb;baseline-shift:baseline;enable-background:accumulate;" d="m 23.999999,1007.3622 c -13.248536,0 -24.000037660001,10.7499 -24.0000001900014,23.999 C 1.8129999e-5,1044.6103 10.751504,1055.3622 23.999999,1055.3622 c 13.248495,0 23.99998,-10.7519 24,-24.001 3.8e-5,-13.2491 -10.751465,-23.999 -24,-23.999 z m 0,1.007 c 12.70433,0 22.99307,10.2872 22.993034,22.992 -1.8e-5,12.7048 -10.288743,22.994 -22.993034,22.994 -12.704291,0 -22.9930162,-10.2892 -22.9930347,-22.994 -3.59e-5,-12.7048 10.2887047,-22.992 22.9930347,-22.992 z m -9.06269,8.9096 c -1.664866,0 -3.020896,1.356 -3.020896,3.021 l 0,1.9826 0,1.007 0,1.007 -1.510449,0 -0.5034818,0 0,0.5035 0,3.5246 1.0069648,0 0,-3.0211 1.006966,0 0,7.0805 0,1.007 0,3.021 -0.503483,0 a 0.5035331,0.5035539 0 0 0 -0.157338,0 0.5035331,0.5035539 0 0 0 -0.346145,0.5035 l 0,3.0211 a 0.5035331,0.5035539 0 0 0 0.503483,0.5035 l 0.503483,0 0,1.4791 a 0.5035331,0.5035539 0 0 0 0.503482,0.5035 l 1.510449,0 0,1.5105 c 0,0.828 0.682364,1.5105 1.510448,1.5105 l 2.013931,0 c 0.828084,0 1.510448,-0.6825 1.510448,-1.5105 l 0,-1.5105 10.069655,0 0,1.5105 c 0,0.828 0.682364,1.5105 1.510449,1.5105 l 2.013931,0 c 0.828084,0 1.510448,-0.6825 1.510448,-1.5105 l 0,-1.5105 1.510448,0 a 0.5035331,0.5035539 0 0 0 0.503483,-0.5035 l 0,-1.4791 0.503483,0 a 0.5035331,0.5035539 0 0 0 0.503482,-0.5035 l 0,-3.0211 a 0.5035331,0.5035539 0 0 0 -0.503482,-0.5035 l -0.503483,0 0,-11.1085 1.006965,0 0,3.0211 1.006966,0 0,-3.5246 0,-0.5035 -0.503483,0 -1.510448,0 0,-3.9966 c 0,-1.665 -1.35603,-3.021 -3.020897,-3.021 l -18.125379,0 z m 0,1.007 18.125379,0 c 1.124424,0 2.013931,0.8896 2.013931,2.014 l 0,1.9826 -22.153241,0 0,-1.9826 c 0,-1.1244 0.889507,-2.014 2.013931,-2.014 z m -2.013931,5.0036 10.573138,0 0,9.0945 -10.573138,0 0,-9.0945 z m 11.580104,0 10.573137,0 0,9.0945 -10.573137,0 0,-9.0945 z m -11.580104,10.1015 22.153241,0 0,3.021 -22.153241,0 0,-3.021 z m 1.006966,1.007 0,1.007 3.020896,0 0,-1.007 -3.020896,0 z m 17.118413,0 0,1.007 3.020897,0 0,-1.007 -3.020897,0 z m -19.132344,3.021 24.167172,0 0,2.0141 -24.167172,0 0,-2.0141 z m 1.006965,3.0211 22.153241,0 0,0.9756 -22.153241,0 0,-0.9756 z m 2.013931,1.9826 3.020897,0 0,1.5105 c 0,0.2876 -0.215831,0.5035 -0.503483,0.5035 l -2.013931,0 c -0.287653,0 -0.503483,-0.2159 -0.503483,-0.5035 l 0,-1.5105 z m 15.104483,0 3.020896,0 0,1.5105 c 0,0.2876 -0.215831,0.5035 -0.503482,0.5035 l -2.013931,0 c -0.287652,0 -0.503483,-0.2159 -0.503483,-0.5035 l 0,-1.5105 z" display="inline" overflow="visible" visibility="visible" fill="blue" fill-opacity="1" stroke="none" marker="none"/></g></g></g></g></svg>