<svg fill="coral" xmlns="http://www.w3.org/2000/svg" xmlns:xlink="http://www.w3.org/1999/xlink" version="1.1" x="0px" y="0px" viewBox="0 0 150 187.5" style="enable-background:new 0 0 150 150;" xml:space="preserve"><path d="M134.3,130l-7.7-6.9c-12.4-11.1-28.3-17.3-44.8-17.6l-9.7-27.1c12.1-12.6,29.5-18.8,46.7-16.5c0.7,0.1,1.4-0.2,1.8-0.7  c0.4-0.5,0.6-1.3,0.3-1.9l-0.4-1.1c-5-13.9-15-25-28.3-31.2c-12.5-5.9-26.4-6.7-39.4-2.5l-2.3-6.5c-0.4-1-1.5-1.6-2.6-1.2  c-1,0.4-1.6,1.5-1.2,2.6l2.3,6.5c-27,11-40.8,41.8-30.8,69.7l0.4,1.1c0.2,0.7,0.8,1.1,1.5,1.3c0.1,0,0.3,0,0.4,0  c0.6,0,1.1-0.2,1.5-0.6c11.9-12.9,29.1-19.3,46.3-17.5l9.2,25.8c-15.8,0.7-31,6.9-42.9,17.5l-7.7,6.9c-0.6,0.6-0.8,1.4-0.5,2.2  c0.3,0.8,1,1.3,1.9,1.3H133c0.8,0,1.6-0.5,1.9-1.3C135.2,131.4,134.9,130.5,134.3,130z M33.5,129.5l3.8-3.4  c12-10.7,27.3-16.6,43.3-16.6c16,0,31.3,5.9,43.3,16.6l3.8,3.4H33.5z M21.4,92.1C13.2,66.2,26.8,38,52.3,28.7  c5.6-2,11.4-3.1,17.1-3.1c7.2,0,14.4,1.6,21.1,4.8c11.7,5.5,20.7,15.1,25.5,27.1c-17.5-1.3-34.8,5.4-47,18.2  C51.5,73.8,34,79.8,21.4,92.1z"/></svg>