<svg xmlns:x="http://ns.adobe.com/Extensibility/1.0/" xmlns:i="http://ns.adobe.com/AdobeIllustrator/10.0/" xmlns:graph="http://ns.adobe.com/Graphs/1.0/" xmlns="http://www.w3.org/2000/svg" xmlns:xlink="http://www.w3.org/1999/xlink" version="1.1" x="0px" y="0px" viewBox="0 0 100 125" enable-background="new 0 0 100 100" xml:space="preserve"><metadata><sfw xmlns="http://ns.adobe.com/SaveForWeb/1.0/"><slices/><sliceSourceBounds y="19.75" x="6" width="88" height="60.5" bottomLeftOrigin="true"/><optimizationSettings><targetSettings targetSettingsID="0" fileFormat="GIFFormat"><GIFFormat transparency="true" lossy="0" matteColor="#FFFFFF" interlaced="false" noMatteColor="false" webShiftPercent="0" includeCaption="false" reductionAlgorithm="selective" ditherAlgorithm="diffusion" ditherPercent="100" numColors="256" rolloverMasterPalette="false" autoReduce="false"><colorTable isExact="false"/><lockedColors/><colorShiftEntries/></GIFFormat></targetSettings></optimizationSettings></sfw></metadata><g><path d="M90,47.25h-8.5v-23c0-2.481-2.019-4.5-4.5-4.5H23c-2.481,0-4.5,2.019-4.5,4.5v23H10c-2.206,0-4,1.794-4,4v25   c0,2.206,1.794,4,4,4h7.5c2.206,0,4-1.794,4-4v-5c0-0.542,0.458-1,1-1h55c0.542,0,1,0.458,1,1v5c0,2.206,1.794,4,4,4H90   c2.206,0,4-1.794,4-4v-25C94,49.044,92.206,47.25,90,47.25z M21.5,24.25c0-0.827,0.673-1.5,1.5-1.5h54c0.827,0,1.5,0.673,1.5,1.5   v23h-57V24.25z M91,76.25c0,0.542-0.458,1-1,1h-7.5c-0.542,0-1-0.458-1-1v-5c0-2.206-1.794-4-4-4h-55c-2.206,0-4,1.794-4,4v5   c0,0.542-0.458,1-1,1H10c-0.542,0-1-0.458-1-1v-25c0-0.542,0.458-1,1-1h80c0.542,0,1,0.458,1,1V76.25z"/><path d="M44.5,34.75h-14c-2.481,0-4.5,2.019-4.5,4.5v1.5c0,2.481,2.019,4.5,4.5,4.5h14c2.481,0,4.5-2.019,4.5-4.5v-1.5   C49,36.769,46.981,34.75,44.5,34.75z M46,40.75c0,0.827-0.673,1.5-1.5,1.5h-14c-0.827,0-1.5-0.673-1.5-1.5v-1.5   c0-0.827,0.673-1.5,1.5-1.5h14c0.827,0,1.5,0.673,1.5,1.5V40.75z"/><path d="M69.5,34.75h-14c-2.481,0-4.5,2.019-4.5,4.5v1.5c0,2.481,2.019,4.5,4.5,4.5h14c2.481,0,4.5-2.019,4.5-4.5v-1.5   C74,36.769,71.981,34.75,69.5,34.75z M71,40.75c0,0.827-0.673,1.5-1.5,1.5h-14c-0.827,0-1.5-0.673-1.5-1.5v-1.5   c0-0.827,0.673-1.5,1.5-1.5h14c0.827,0,1.5,0.673,1.5,1.5V40.75z"/><rect x="25" y="25.25" width="50" height="2"/></g></svg>