<svg class="icon_cafe" fill="coral" xmlns="http://www.w3.org/2000/svg" xmlns:xlink="http://www.w3.org/1999/xlink" version="1.1" x="0px" y="0px" viewBox="0 0 64 64" enable-background="new 0 0 64 64" xml:space="preserve"><g display="none"><g display="inline"><polygon fill="#000000" points="5.397,61 4.5,57 56.5,57 55.603,61   "/><g><path fill="#000000" d="M19.166,57h22.669C48.225,51.051,52.5,40.227,52.5,27.857c0-1.65-0.08-3.27-0.227-4.857H8.727     C8.58,24.587,8.5,26.207,8.5,27.857C8.5,40.227,12.775,51.051,19.166,57z"/><path d="M41.834,58H19.166c-0.253,0-0.496-0.096-0.682-0.269C11.606,51.328,7.5,40.16,7.5,27.857     c0-1.627,0.078-3.292,0.231-4.949C7.779,22.394,8.21,22,8.727,22h43.546c0.517,0,0.948,0.394,0.996,0.908     c0.154,1.657,0.231,3.322,0.231,4.949c0,12.303-4.106,23.471-10.984,29.874C42.331,57.904,42.087,58,41.834,58z M19.564,56     h21.872C47.652,50.003,51.5,39.269,51.5,27.857c0-1.27-0.049-2.563-0.146-3.857H9.646C9.549,25.295,9.5,26.588,9.5,27.857     C9.5,39.269,13.348,50.003,19.564,56z"/></g><rect x="15.5" y="60" width="2" height="2"/><path d="M55.604,62H19.5v-2h35.303l0.448-2H5.749l0.448,2H13.5v2H5.396c-0.468,0-0.874-0.324-0.976-0.781l-0.896-4    c-0.066-0.296,0.005-0.606,0.195-0.844C3.909,56.138,4.196,56,4.5,56h52c0.304,0,0.591,0.138,0.781,0.375    c0.189,0.237,0.261,0.548,0.195,0.844l-0.896,4C56.477,61.676,56.072,62,55.604,62z"/><path d="M49.6,47h-0.1v-2h0.1c4.907,0,8.9-3.993,8.9-8.9V29h-6v-2h7c0.552,0,1,0.447,1,1v8.1C60.5,42.11,55.61,47,49.6,47z"/><g><path d="M31.273,19c-0.18,0-0.363-0.049-0.527-0.151c-0.469-0.291-0.612-0.908-0.321-1.377c1.547-2.487,0.517-4.242-0.787-6.466     c-1.381-2.354-2.947-5.021-0.761-8.534c0.291-0.47,0.907-0.613,1.377-0.32c0.469,0.291,0.612,0.908,0.321,1.377     c-1.547,2.487-0.517,4.242,0.787,6.466c1.381,2.354,2.947,5.021,0.761,8.534C31.934,18.833,31.607,19,31.273,19z"/><path d="M41.273,19c-0.18,0-0.363-0.049-0.527-0.151c-0.469-0.291-0.612-0.908-0.321-1.377c1.547-2.487,0.517-4.243-0.787-6.466     c-1.381-2.354-2.946-5.021-0.761-8.534c0.292-0.47,0.907-0.613,1.377-0.32c0.469,0.291,0.612,0.908,0.321,1.377     c-1.547,2.486-0.517,4.242,0.788,6.466c1.381,2.354,2.946,5.021,0.76,8.534C41.934,18.833,41.607,19,41.273,19z"/><path d="M21.273,19c-0.18,0-0.363-0.049-0.527-0.151c-0.469-0.291-0.612-0.908-0.321-1.377c1.547-2.487,0.517-4.242-0.787-6.466     c-1.381-2.354-2.947-5.021-0.761-8.534c0.292-0.47,0.908-0.613,1.377-0.32c0.469,0.291,0.612,0.908,0.321,1.377     c-1.547,2.487-0.517,4.242,0.787,6.466c1.381,2.354,2.947,5.021,0.761,8.534C21.934,18.833,21.607,19,21.273,19z"/></g></g></g><g display="none"><g display="inline"><path fill="#000000" d="M49.6,47h-0.1v-2h0.1c4.907,0,8.9-3.993,8.9-8.9V29h-6v-2h7c0.552,0,1,0.447,1,1v8.1    C60.5,42.11,55.61,47,49.6,47z"/><path fill="#000000" d="M53.269,22.908C53.221,22.394,52.79,22,52.273,22H8.727c-0.517,0-0.948,0.394-0.996,0.908    C7.578,24.565,7.5,26.23,7.5,27.857c0,12.303,4.106,23.471,10.984,29.874C18.669,57.904,18.913,58,19.166,58h22.669    c0.253,0,0.496-0.096,0.682-0.269C49.394,51.328,53.5,40.16,53.5,27.857C53.5,26.23,53.422,24.565,53.269,22.908z"/><path fill="#000000" d="M57.281,56.375C57.091,56.138,56.804,56,56.5,56h-52c-0.304,0-0.591,0.138-0.781,0.375    c-0.189,0.237-0.261,0.548-0.195,0.844l0.896,4C4.523,61.676,4.928,62,5.396,62h50.207c0.468,0,0.874-0.324,0.976-0.781l0.896-4    C57.542,56.923,57.47,56.612,57.281,56.375z"/><g><path fill="#000000" d="M31.273,19c-0.18,0-0.363-0.049-0.527-0.151c-0.469-0.291-0.612-0.908-0.321-1.377     c1.547-2.487,0.517-4.242-0.787-6.466c-1.381-2.354-2.947-5.021-0.761-8.534c0.291-0.47,0.907-0.613,1.377-0.32     c0.469,0.291,0.612,0.908,0.321,1.377c-1.547,2.487-0.517,4.242,0.787,6.466c1.381,2.354,2.947,5.021,0.761,8.534     C31.934,18.833,31.607,19,31.273,19z"/><path fill="#000000" d="M41.273,19c-0.18,0-0.363-0.049-0.527-0.151c-0.469-0.291-0.612-0.908-0.321-1.377     c1.547-2.487,0.517-4.243-0.787-6.466c-1.381-2.354-2.946-5.021-0.761-8.534c0.292-0.47,0.907-0.613,1.377-0.32     c0.469,0.291,0.612,0.908,0.321,1.377c-1.547,2.486-0.517,4.242,0.788,6.466c1.381,2.354,2.946,5.021,0.76,8.534     C41.934,18.833,41.607,19,41.273,19z"/><path fill="#000000" d="M21.273,19c-0.18,0-0.363-0.049-0.527-0.151c-0.469-0.291-0.612-0.908-0.321-1.377     c1.547-2.487,0.517-4.242-0.787-6.466c-1.381-2.354-2.947-5.021-0.761-8.534c0.292-0.47,0.908-0.613,1.377-0.32     c0.469,0.291,0.612,0.908,0.321,1.377c-1.547,2.487-0.517,4.242,0.787,6.466c1.381,2.354,2.947,5.021,0.761,8.534     C21.934,18.833,21.607,19,21.273,19z"/></g></g></g><g><g><rect x="15.5" y="60" width="2" height="2"/><path d="M60.5,36.1V28c0-0.553-0.448-1-1-1h-6.02c-0.022-1.354-0.084-2.723-0.211-4.092C53.221,22.394,52.79,22,52.273,22H8.727    c-0.517,0-0.948,0.394-0.996,0.908C7.578,24.565,7.5,26.23,7.5,27.857c0,11.265,3.451,21.567,9.311,28.143H4.5    c-0.304,0-0.591,0.138-0.781,0.375c-0.189,0.237-0.261,0.548-0.195,0.844l0.896,4C4.523,61.676,4.928,62,5.396,62H13.5v-2H6.197    l-0.448-2h13.417h22.669h13.417l-0.448,2H19.5v2h36.104c0.468,0,0.874-0.324,0.976-0.781l0.896-4    c0.066-0.296-0.005-0.606-0.195-0.844C57.091,56.138,56.804,56,56.5,56H44.189c2.24-2.513,4.132-5.561,5.608-9.01    C55.716,46.884,60.5,42.044,60.5,36.1z M53.476,29H58.5v7.1c0,4.565-3.457,8.335-7.89,8.839    C52.364,40.144,53.357,34.707,53.476,29z M19.564,56C13.348,50.003,9.5,39.269,9.5,27.857c0-1.27,0.049-2.563,0.146-3.857h41.707    c0.097,1.295,0.146,2.588,0.146,3.857c0,11.411-3.848,22.146-10.064,28.143H19.564z"/><path d="M30.425,17.472c-0.292,0.469-0.148,1.086,0.321,1.377C30.91,18.951,31.093,19,31.273,19c0.334,0,0.661-0.167,0.85-0.472    c2.186-3.513,0.621-6.181-0.761-8.534c-1.304-2.224-2.334-3.979-0.787-6.466c0.292-0.469,0.148-1.086-0.321-1.377    c-0.471-0.293-1.087-0.149-1.377,0.32c-2.186,3.513-0.621,6.181,0.761,8.534C30.942,13.229,31.972,14.984,30.425,17.472z"/><path d="M40.425,17.472c-0.292,0.469-0.148,1.086,0.321,1.377C40.91,18.951,41.093,19,41.273,19c0.334,0,0.661-0.167,0.85-0.472    c2.186-3.514,0.621-6.181-0.76-8.534c-1.305-2.224-2.335-3.979-0.788-6.466c0.292-0.469,0.148-1.086-0.321-1.377    c-0.47-0.293-1.086-0.149-1.377,0.32c-2.186,3.513-0.62,6.181,0.761,8.534C40.942,13.229,41.972,14.984,40.425,17.472z"/><path d="M20.425,17.472c-0.292,0.469-0.148,1.086,0.321,1.377C20.91,18.951,21.093,19,21.273,19c0.334,0,0.661-0.167,0.85-0.472    c2.186-3.513,0.621-6.181-0.761-8.534c-1.304-2.224-2.334-3.979-0.787-6.466c0.292-0.469,0.148-1.086-0.321-1.377    c-0.47-0.293-1.086-0.149-1.377,0.32c-2.186,3.513-0.621,6.181,0.761,8.534C20.942,13.229,21.972,14.984,20.425,17.472z"/></g></g><g display="none"><g display="inline"><path fill="none" stroke="#000000" stroke-width="2" stroke-linejoin="round" stroke-miterlimit="10" d="M19.166,57h22.669    C48.225,51.051,52.5,40.227,52.5,27.857c0-1.65-0.08-3.27-0.227-4.857H8.727C8.58,24.587,8.5,26.207,8.5,27.857    C8.5,40.227,12.775,51.051,19.166,57z"/><line fill="none" stroke="#000000" stroke-width="2" stroke-linejoin="round" stroke-miterlimit="10" x1="17.5" y1="61" x2="15.5" y2="61"/><polyline fill="none" stroke="#000000" stroke-width="2" stroke-linejoin="round" stroke-miterlimit="10" points="13.5,61     5.397,61 4.5,57 56.5,57 55.603,61 19.5,61   "/><path fill="none" stroke="#000000" stroke-width="2" stroke-linejoin="round" stroke-miterlimit="10" d="M52.5,28h7v8.1    c0,5.468-4.432,9.9-9.9,9.9h-0.1"/><g><path fill="none" stroke="#000000" stroke-width="2" stroke-linecap="round" stroke-linejoin="round" stroke-miterlimit="10" d="     M29.726,3c-3.733,6,5.281,9,1.548,15"/><path fill="none" stroke="#000000" stroke-width="2" stroke-linecap="round" stroke-linejoin="round" stroke-miterlimit="10" d="     M39.726,3c-3.733,6,5.281,9,1.548,15"/><path fill="none" stroke="#000000" stroke-width="2" stroke-linecap="round" stroke-linejoin="round" stroke-miterlimit="10" d="     M19.726,3c-3.733,6,5.281,9,1.548,15"/></g></g></g></svg>